<mxfile host="Electron" modified="2024-04-23T12:28:52.395Z" agent="Mozilla/5.0 (Windows NT 10.0; Win64; x64) AppleWebKit/537.36 (KHTML, like Gecko) draw.io/24.2.5 Chrome/120.0.6099.109 Electron/28.1.0 Safari/537.36" etag="QKiIFUM2UE3T1hjYxupu" version="24.2.5" type="device">
  <diagram name="第 1 页" id="kpHxyXggeVOfL77XtB8G">
    <mxGraphModel dx="1262" dy="752" grid="1" gridSize="10" guides="1" tooltips="1" connect="1" arrows="1" fold="1" page="1" pageScale="1" pageWidth="827" pageHeight="1169" math="0" shadow="0">
      <root>
        <mxCell id="0" />
        <mxCell id="1" parent="0" />
        <mxCell id="vz0r6AZS9npDYq0E-0vJ-2" value="" style="whiteSpace=wrap;html=1;aspect=fixed;" vertex="1" parent="1">
          <mxGeometry x="15" y="80" width="470" height="470" as="geometry" />
        </mxCell>
        <mxCell id="vz0r6AZS9npDYq0E-0vJ-3" value="列表" style="rounded=1;whiteSpace=wrap;html=1;" vertex="1" parent="1">
          <mxGeometry x="30" y="100" width="440" height="50" as="geometry" />
        </mxCell>
        <mxCell id="vz0r6AZS9npDYq0E-0vJ-4" value="登入頁面" style="text;html=1;align=center;verticalAlign=middle;whiteSpace=wrap;rounded=0;" vertex="1" parent="1">
          <mxGeometry x="15" y="50" width="60" height="30" as="geometry" />
        </mxCell>
        <mxCell id="vz0r6AZS9npDYq0E-0vJ-5" value="" style="rounded=1;whiteSpace=wrap;html=1;" vertex="1" parent="1">
          <mxGeometry x="30" y="170" width="440" height="330" as="geometry" />
        </mxCell>
        <mxCell id="vz0r6AZS9npDYq0E-0vJ-6" value="email/phone" style="rounded=0;whiteSpace=wrap;html=1;" vertex="1" parent="1">
          <mxGeometry x="110" y="230" width="280" height="40" as="geometry" />
        </mxCell>
        <mxCell id="vz0r6AZS9npDYq0E-0vJ-7" value="密碼" style="rounded=0;whiteSpace=wrap;html=1;" vertex="1" parent="1">
          <mxGeometry x="110" y="280" width="280" height="40" as="geometry" />
        </mxCell>
        <mxCell id="vz0r6AZS9npDYq0E-0vJ-8" value="登入" style="rounded=0;whiteSpace=wrap;html=1;" vertex="1" parent="1">
          <mxGeometry x="110" y="330" width="280" height="20" as="geometry" />
        </mxCell>
        <mxCell id="vz0r6AZS9npDYq0E-0vJ-18" style="edgeStyle=orthogonalEdgeStyle;rounded=0;orthogonalLoop=1;jettySize=auto;html=1;exitX=1;exitY=0.5;exitDx=0;exitDy=0;entryX=0;entryY=0.75;entryDx=0;entryDy=0;" edge="1" parent="1" source="vz0r6AZS9npDYq0E-0vJ-9" target="vz0r6AZS9npDYq0E-0vJ-17">
          <mxGeometry relative="1" as="geometry" />
        </mxCell>
        <mxCell id="vz0r6AZS9npDYq0E-0vJ-9" value="忘記密碼" style="rounded=0;whiteSpace=wrap;html=1;" vertex="1" parent="1">
          <mxGeometry x="300" y="360" width="90" height="20" as="geometry" />
        </mxCell>
        <mxCell id="vz0r6AZS9npDYq0E-0vJ-10" value="三方登入" style="rounded=0;whiteSpace=wrap;html=1;" vertex="1" parent="1">
          <mxGeometry x="110" y="390" width="280" height="20" as="geometry" />
        </mxCell>
        <mxCell id="vz0r6AZS9npDYq0E-0vJ-25" style="edgeStyle=orthogonalEdgeStyle;rounded=0;orthogonalLoop=1;jettySize=auto;html=1;exitX=0.5;exitY=1;exitDx=0;exitDy=0;" edge="1" parent="1" source="vz0r6AZS9npDYq0E-0vJ-12">
          <mxGeometry relative="1" as="geometry">
            <mxPoint x="249.57894736842104" y="621.8467310855264" as="targetPoint" />
          </mxGeometry>
        </mxCell>
        <mxCell id="vz0r6AZS9npDYq0E-0vJ-12" value="註冊" style="rounded=0;whiteSpace=wrap;html=1;" vertex="1" parent="1">
          <mxGeometry x="110" y="420" width="280" height="20" as="geometry" />
        </mxCell>
        <mxCell id="vz0r6AZS9npDYq0E-0vJ-23" style="edgeStyle=orthogonalEdgeStyle;rounded=0;orthogonalLoop=1;jettySize=auto;html=1;exitX=1;exitY=0.5;exitDx=0;exitDy=0;" edge="1" parent="1" source="vz0r6AZS9npDYq0E-0vJ-17" target="vz0r6AZS9npDYq0E-0vJ-24">
          <mxGeometry relative="1" as="geometry">
            <mxPoint x="790" y="470" as="targetPoint" />
            <Array as="points">
              <mxPoint x="770" y="300" />
              <mxPoint x="770" y="510" />
            </Array>
          </mxGeometry>
        </mxCell>
        <mxCell id="vz0r6AZS9npDYq0E-0vJ-17" value="" style="rounded=0;whiteSpace=wrap;html=1;" vertex="1" parent="1">
          <mxGeometry x="520" y="195" width="230" height="210" as="geometry" />
        </mxCell>
        <mxCell id="vz0r6AZS9npDYq0E-0vJ-19" value="Eail" style="rounded=0;whiteSpace=wrap;html=1;" vertex="1" parent="1">
          <mxGeometry x="535" y="210" width="200" height="60" as="geometry" />
        </mxCell>
        <mxCell id="vz0r6AZS9npDYq0E-0vJ-20" value="送出" style="rounded=0;whiteSpace=wrap;html=1;" vertex="1" parent="1">
          <mxGeometry x="535" y="300" width="195" height="60" as="geometry" />
        </mxCell>
        <mxCell id="vz0r6AZS9npDYq0E-0vJ-24" value="發送臨時密碼信" style="rounded=0;whiteSpace=wrap;html=1;" vertex="1" parent="1">
          <mxGeometry x="590" y="480" width="120" height="60" as="geometry" />
        </mxCell>
        <mxCell id="vz0r6AZS9npDYq0E-0vJ-26" value="" style="whiteSpace=wrap;html=1;aspect=fixed;" vertex="1" parent="1">
          <mxGeometry x="15" y="620" width="470" height="470" as="geometry" />
        </mxCell>
        <mxCell id="vz0r6AZS9npDYq0E-0vJ-27" value="註冊頁面" style="text;html=1;align=center;verticalAlign=middle;whiteSpace=wrap;rounded=0;" vertex="1" parent="1">
          <mxGeometry x="15" y="590" width="60" height="30" as="geometry" />
        </mxCell>
        <mxCell id="vz0r6AZS9npDYq0E-0vJ-28" value="列表" style="rounded=1;whiteSpace=wrap;html=1;" vertex="1" parent="1">
          <mxGeometry x="30" y="640" width="440" height="50" as="geometry" />
        </mxCell>
        <mxCell id="vz0r6AZS9npDYq0E-0vJ-29" value="" style="rounded=1;whiteSpace=wrap;html=1;" vertex="1" parent="1">
          <mxGeometry x="30" y="720" width="440" height="330" as="geometry" />
        </mxCell>
        <mxCell id="vz0r6AZS9npDYq0E-0vJ-32" value="密碼" style="rounded=0;whiteSpace=wrap;html=1;" vertex="1" parent="1">
          <mxGeometry x="110" y="810" width="280" height="20" as="geometry" />
        </mxCell>
        <mxCell id="vz0r6AZS9npDYq0E-0vJ-33" value="email" style="rounded=0;whiteSpace=wrap;html=1;" vertex="1" parent="1">
          <mxGeometry x="110" y="840" width="280" height="20" as="geometry" />
        </mxCell>
        <mxCell id="vz0r6AZS9npDYq0E-0vJ-34" value="手機" style="rounded=0;whiteSpace=wrap;html=1;" vertex="1" parent="1">
          <mxGeometry x="110" y="870" width="280" height="20" as="geometry" />
        </mxCell>
        <mxCell id="vz0r6AZS9npDYq0E-0vJ-35" value="&lt;div&gt;姓&lt;/div&gt;" style="rounded=0;whiteSpace=wrap;html=1;" vertex="1" parent="1">
          <mxGeometry x="110" y="780" width="120" height="20" as="geometry" />
        </mxCell>
        <mxCell id="vz0r6AZS9npDYq0E-0vJ-36" value="&lt;div&gt;名&lt;/div&gt;" style="rounded=0;whiteSpace=wrap;html=1;" vertex="1" parent="1">
          <mxGeometry x="270" y="780" width="120" height="20" as="geometry" />
        </mxCell>
        <mxCell id="vz0r6AZS9npDYq0E-0vJ-37" value="" style="ellipse;whiteSpace=wrap;html=1;aspect=fixed;" vertex="1" parent="1">
          <mxGeometry x="165" y="900" width="10" height="10" as="geometry" />
        </mxCell>
        <mxCell id="vz0r6AZS9npDYq0E-0vJ-40" value="性別" style="text;html=1;align=center;verticalAlign=middle;whiteSpace=wrap;rounded=0;" vertex="1" parent="1">
          <mxGeometry x="110" y="890" width="60" height="30" as="geometry" />
        </mxCell>
        <mxCell id="vz0r6AZS9npDYq0E-0vJ-42" value="" style="ellipse;whiteSpace=wrap;html=1;aspect=fixed;" vertex="1" parent="1">
          <mxGeometry x="200" y="900" width="10" height="10" as="geometry" />
        </mxCell>
        <mxCell id="vz0r6AZS9npDYq0E-0vJ-43" value="生日" style="rounded=0;whiteSpace=wrap;html=1;" vertex="1" parent="1">
          <mxGeometry x="110" y="920" width="280" height="20" as="geometry" />
        </mxCell>
        <mxCell id="vz0r6AZS9npDYq0E-0vJ-46" style="edgeStyle=orthogonalEdgeStyle;rounded=0;orthogonalLoop=1;jettySize=auto;html=1;exitX=1;exitY=0.5;exitDx=0;exitDy=0;" edge="1" parent="1" source="vz0r6AZS9npDYq0E-0vJ-44">
          <mxGeometry relative="1" as="geometry">
            <mxPoint x="520" y="990.1052631578948" as="targetPoint" />
          </mxGeometry>
        </mxCell>
        <mxCell id="vz0r6AZS9npDYq0E-0vJ-44" value="送出" style="rounded=0;whiteSpace=wrap;html=1;" vertex="1" parent="1">
          <mxGeometry x="270" y="980" width="120" height="20" as="geometry" />
        </mxCell>
        <mxCell id="vz0r6AZS9npDYq0E-0vJ-45" value="清除資料" style="rounded=0;whiteSpace=wrap;html=1;" vertex="1" parent="1">
          <mxGeometry x="110" y="980" width="120" height="20" as="geometry" />
        </mxCell>
        <mxCell id="vz0r6AZS9npDYq0E-0vJ-47" value="驗證信已發送,請透過註冊信箱開通" style="rounded=0;whiteSpace=wrap;html=1;" vertex="1" parent="1">
          <mxGeometry x="520" y="620" width="260" height="470" as="geometry" />
        </mxCell>
        <mxCell id="vz0r6AZS9npDYq0E-0vJ-48" value="列表" style="rounded=1;whiteSpace=wrap;html=1;" vertex="1" parent="1">
          <mxGeometry x="550" y="640" width="200" height="50" as="geometry" />
        </mxCell>
      </root>
    </mxGraphModel>
  </diagram>
</mxfile>
